<svg xmlns="http://www.w3.org/2000/svg" xmlns:xlink="http://www.w3.org/1999/xlink" viewBox="0 0 2017 1513">
  <defs>
			<linearGradient id="fade_horizontal_pelog" x1="0%" y1="0%" x2="100%" y2="0%">
				<stop offset="0.05" stop-color="black"></stop>
				<stop offset="0.1" stop-color="white"></stop>
				<stop offset="0.9" stop-color="white"></stop>
				<stop offset="0.95" stop-color="black"></stop>
			</linearGradient>
			<linearGradient id="fade_vertical_pelog" x1="0%" y1="0%" x2="0%" y2="100%">
				<stop offset="0.05" stop-color="black"></stop>
				<stop offset="0.4" stop-color="white"></stop>
				<stop offset="0.6" stop-color="white"></stop>
				<stop offset="0.95" stop-color="black"></stop>
			</linearGradient>
			
			<mask id="mask_horizontal_pelog">
				<rect x="0" y="0" width="2017" height="1513" fill="url(#fade_horizontal_pelog)"/>
			</mask>
			<mask id="mask_vertical_pelog">
				<rect x="0" y="0" width="2017" height="1513" fill="url(#fade_vertical_pelog)"/>
			</mask>
		</defs>
  <g id="Background_Image" data-name="Background Image" mask="url(#mask_horizontal_pelog)">
    <g id="Background_Imageremove_hc" data-name="Background Imageremove_hc">
      <path d="M610.85,736.66c-.13-4.78-.63-9.56-1-14.33-.29-3.52-.5-7.05-.66-10.57v25.11A16.1,16.1,0,0,1,610.85,736.66Z"/>
      <path d="M616.23,789.55c-4-.13-6.84-.37-6.84-.72,0-5.41-.1-10.82-.22-16.22v10.95q0,19.91,0,39.8a19.35,19.35,0,0,1,5.45-.55q0-8.14,0-16.27h1.63Q616.24,798,616.23,789.55Z"/>
      <path d="M1,1V1513H2017V1ZM1767,712.33a46,46,0,0,1,3.87-3.66v7.78C1766.52,716.36,1765,714.65,1767,712.33Zm-.13,12.63c1.7,5.48,3.44,10.53,4.76,15.69.35,1.36-.13,3.92-1,4.4a13.53,13.53,0,0,1-6.57,1.21c-.62,0-1.74-2.37-1.63-3.56.38-4,1.67-7.85,1.73-11.78C1764.12,728.13,1762.9,725.4,1766.84,725ZM307.41,789.31l2.16,0c.47,4.13.93,8.26,1.39,12.36l-6.16,2.66C305.74,798.88,306.57,794.1,307.41,789.31Zm1.71,54.28c-1.26-.05-2.68-1.64-3.62-2.88a55.22,55.22,0,0,1-3.49-6.24c3.67,1,5.9,1.25,7.72,2.24,1.13.62,2.36,2.47,2.22,3.59C311.77,841.58,310.08,843.63,309.12,843.59Zm-4.68-16.33c.14-1.56.29-3.32.45-5.11l8,1.45c0,.44.09,1.67.15,2.71ZM783.11,498.45q-.23,47.9-.52,95.8-.24,38.38-.58,76.76-.56,54.71-1.25,109.42c-.17,13.62-.47,27.24-.68,40.86-.43,28-.93,56.09-1.19,84.14,0,4.78-1.85,6.36-6.47,6.56-15.26.68-30.53,1.45-45.75,2.68-12.52,1-25,3.08-37.48,4.1-23.16,1.88-46.36,3.29-69.53,5-5.18.39-5.08-2.69-5.07-6.31q0-25.65,0-51.3a.1.1,0,0,1,0,0c-2.52-2.82-3-8.26-3.45-11.85-.63-5.37-1.11-10.75-1.78-16.12,0-.34-.09-.67-.13-1,0,.92,0,1.84,0,2.76.15,28,.33,55.94.71,83.91.06,4.52-.59,6.92-6,7.16-12.53.57-25,1.93-37.53,2.8-23,1.59-46,3-69.07,4.62-12.56.9-25.07,2.48-37.64,3.19-3.84.22-7.89-1.15-11.61-2.43-1-.34-1.6-3.08-1.6-4.72-.16-33.48-.14-67-.3-100.44-.23-47.47-.62-94.95-.83-142.42,0-11.15.55-22.3.5-33.45-.14-31.59-.54-63.18-.69-94.77-.15-29.3.14-58.61-.31-87.91-.15-9.14,4.54-9.43,10.94-9.3,6.6.14,13.19.73,19.79,1.11q22.63,1.32,45.27,2.63c8.8.5,17.61.92,26.4,1.43,6.63.38,13.25,1.08,19.87,1.19,4.72.07,9.45-.66,14.18-1,1.8-.1,4.29-.71,5.32.2,4.37,3.86,9.56,3.31,14.63,3.5,3.75.14,5.56,1.41,5.54,5.65q-.15,30.46.24,60.93c.45,35.45,1.08,70.9,1.62,106.35.07,4.31,0,8.63,0,12.94h.48v17.65a49,49,0,0,1,7.24-.53q.27-26.76.88-53.53c.36-16.73,1.21-33.46,1.63-50.19.11-4.46-.84-8.94-.77-13.4.26-17.76.81-35.51,1.11-53.27q.25-15.17,0-30.32c0-3.6,1.48-4.8,4.81-4.49,6.63.62,13.25,1.31,19.89,1.76,14.92,1,29.88,1.56,44.78,2.85,27.62,2.4,55.21,5.08,82.79,7.87C783.15,486.73,783.17,487,783.11,498.45ZM950,785.4c-.31,16.9,0,33.82-.31,50.73-.25,12.4-1.2,24.78-1.76,37.18-.11,2.47.21,5,.27,7.42.16,6-1.38,7.66-7.31,8.26-6.27.63-12.53,1.38-18.81,2-15.17,1.39-30.34,3-45.54,3.94-7.31.46-14.69-.34-22-.58-.33,0-.74-.2-1-.06-8.44,5.33-18.08,3.28-27.18,4.15-12.22,1.18-24.52,1.68-36.8,2.05-5.7.17-5.58-.61-4.84-6.14.64-4.88.23-9.9.25-14.86.07-16.07,0-32.14.22-48.21.16-14,.67-28,.77-41.94,0-3.33-1.4-6.66-1.43-10,0-2.5,1.45-5,1.64-7.52.36-5,.32-10,.4-15,.29-19.25.44-38.51.87-57.75.43-19.06,1.18-38.1,1.71-57.15.35-12.09.52-24.18.85-36.27.31-11.26.9-22.52,1-33.78.2-15.77,0-31.54.15-47.31.14-12.92.64-25.84.87-38.76.07-3.57,2-4,4.92-3.69,13.08,1.21,26.17,2.32,39.26,3.45,18,1.57,36.12,2.9,54.13,4.81,6.08.64,12,2.73,18,4.15a3.55,3.55,0,0,0,1.42.28c13.65-3.32,26.78,1.82,40.18,2.61,3.22.19,5.42,2.54,5.21,6.91-.47,9.79-.15,19.61-.15,29.42h.29c-.62,14.76-1.48,29.51-1.78,44.27-.33,16.41,0,32.84-.25,49.26-.24,18.47-.86,36.92-1.14,55.39-.29,19-.21,37.94-.6,56.91C951.22,754.85,950.25,770.11,950,785.4Zm178.75-181.73q-.37,77.72-.87,155.42c-.13,22.82-1.16,45.7.13,68.44.74,13.05-1.38,25.83-.69,38.73.23,4.28-1.39,6-5.56,6.2q-17.34,1-34.65,2.42c-26,2.13-52,4.43-78,6.56-11.23.93-22.48,1.68-33.74,2.35-1.3.07-2.65-1-4-1.43-1.09-.37-2.52-1.26-3.27-.87-4.66,2.36-4.81-1-4.91-3.87a108.34,108.34,0,0,1,.11-15c.81-7.63-.78-14.59-5-22.6L956,845.21l-3.91-2V837l4.26,3.32c.56-1,1.14-2.77,1.68-2.76,6.16.13,5.13-4.27,5.18-7.94q.35-22.7.6-45.38.18-18.15.2-36.3a50.52,50.52,0,0,0-.68-5.7L959.91,748l-1.25-.91,3.64,2.84-8.46,1V738l5.38,3.13V730.7l4,5.3c-.19-6.4,2-12.26-1.71-16.54,1-2.23,2.44-4,2.46-5.78.24-26.45.26-52.91.41-79.37.17-28.47.44-56.94.63-85.4.1-16.71.21-33.41.12-50.12,0-4.19.87-5.84,5.67-5.36,28.29,2.77,56.63,5,84.93,7.79,22.69,2.21,45.34,5,68,7.21,4.12.41,5.26,1.81,5.24,5.79C1128.81,544,1128.86,573.85,1128.71,603.67Zm171.85,31c.93,15.6.32,31.29.37,46.94s.07,31.32.12,47q.08,21.46.18,42.94.19,40.82.48,81.62c0,2.93-.42,3.61-3.83,3.79-11.84.65-23.63,2.16-35.45,3.31-8.76.85-17.52,1.64-26.28,2.48-28.6,2.76-57.2,5.6-85.82,8.26-13.07,1.21-13.35,1-13.54-12q-.6-39.68-.65-79.36-.17-57.42,0-114.85.06-44.32.28-88.66c.07-19.92.19-39.84.18-59.76,0-1.64-.76-3.28-1.48-6.16,54.58,2.5,109.38,8.6,165.69,13.25,0,6.57,0,13,0,19.36.11,15.24-1,30.63.72,45.69C1303.26,604.07,1299.64,619.22,1300.56,634.65ZM1477.4,842.77q-28.32,2.88-56.61,6-36.19,3.93-72.39,7.91c-9.24,1-18.5,2-27.74,3-3.56.41-5.49-.27-5.56-4.61-.29-18.3-1-36.59-1.41-54.89q-1.9-76.81-3.73-153.63c-.46-19.28-.82-38.57-1.27-57.85-.44-18.8-.81-37.61-1.53-56.4-.16-4.4,1.37-5.52,5.37-5.25,21.1,1.41,42.21,2.56,63.29,4.07,31,2.23,62,4.73,93,7,3.84.28,4.11,2.44,4.21,5.33.58,17.64,1.25,35.29,1.84,52.94,1.94,58.6,4,117.2,5.71,175.8.48,16.14.08,32.3.08,48.46h1.41c0,5.49-.37,11,.12,16.47C1482.54,841.12,1481.08,842.4,1477.4,842.77Zm180.1-19.15a75.06,75.06,0,0,1-10.62,2.49c-19.6,2.61-39.21,5.28-58.86,7.48-17.09,1.91-34.27,3-51.38,4.86-11.48,1.21-22.92,2.9-34.35,4.58-3,.45-4.39-.19-4.48-3.37-.74-25.24-1.53-50.49-2.31-76a12.2,12.2,0,0,0,3.49-.61,3,3,0,0,0,1.59-2.18c0-.69-1.06-1.69-1.84-1.94-5-1.6-5.67-3.79-2.27-7.94.7-.86,1.36-1.76,2.59-3.35l-4.17.31c-1-26.05-1.83-52.24-2.92-78.43-.84-20.12-2.14-40.22-2.93-60.34-.8-20.62-1.17-41.25-1.89-61.88-.15-4.16,1.23-5.43,5.43-5.24q74.31,3.24,148.64,6.21c11.31.47,11.47.45,11.79,11.71.7,24.94.9,49.91,1.88,74.84,1.21,30.69,3.14,61.35,4.49,92,1,23.63,1.66,47.28,2.5,70.91.22,6,.41,12,.88,18C1663.1,819.92,1661.35,822.5,1657.5,823.62Zm97.14-68,1.71-.26c.29,4.59.58,9.17.88,14C1752.11,765.52,1754.13,760.46,1754.64,755.67Zm18.29,27-1.46.39a29,29,0,0,1-1.23-5.42c-.2-5.25-.13-10.52-.16-15.77l-2.4.15c.46,2.54.92,5.08,1.47,8.16a33.87,33.87,0,0,1-4.41,1.4,9.19,9.19,0,0,1-1-2.63c-.12-.5.44-1.32.21-1.6-3-3.76-3.31-8.27-3.18-12.73a14.88,14.88,0,0,1,1.88-5.68c.11-.23,2.35.09,3.1.74a17.79,17.79,0,0,1,3.84,4.54c1.32,2.3,3,4.81,3.14,7.31C1773.2,768.57,1772.93,775.63,1772.93,782.68Z"/>
    </g>
    <g mask="url(#mask_vertical_pelog)">
      <image id="Background_Imageremove" data-name="Background Imageremove" width="2016" height="1512" xlink:href="toy_saron_pelog1.png"/>
    </g>
  </g>
  <g id="M7_Image" data-name="M7 Image">
    <g id="M7_Imageremove_hc" data-name="M7 Imageremove_hc">
      <polygon points="1646.7 548.59 1653.02 548.59 1662.77 815.73 1657.5 823.62 1502.29 843.03 1497.81 839.66 1484.67 542.07 1646.7 548.59"/>
    </g>
    <image id="M7_Imageremove" data-name="M7 Imageremove" width="178" height="304" transform="translate(1485 540)" xlink:href="toy_saron_pelog2.png"/>
  </g>
  <g id="M6_Image" data-name="M6 Image">
    <g id="M6_Imageremove_hc" data-name="M6 Imageremove_hc">
      <polygon points="1307.15 527.01 1474.51 538.52 1482.18 837.09 1477.4 842.77 1320.66 859.68 1313.67 859.68 1307.15 527.01"/>
    </g>
    <image id="M6_Imageremove" data-name="M6 Imageremove" width="177" height="335" transform="translate(1305 525)" xlink:href="toy_saron_pelog3.png"/>
  </g>
  <g id="M5_Image" data-name="M5 Image">
    <g id="M5_Imageremove_hc" data-name="M5 Imageremove_hc">
      <polygon points="1135.08 510.19 1300.77 523.45 1301.71 853.13 1299.74 857.29 1135.92 871.45 1135.08 510.19"/>
    </g>
    <image id="M5_Imageremove" data-name="M5 Imageremove" width="171" height="364" transform="translate(1132 508)" xlink:href="toy_saron_pelog4.png"/>
  </g>
  <g id="M4_Image" data-name="M4 Image">
    <g id="M4_Imageremove_hc" data-name="M4 Imageremove_hc">
      <polyline points="960.64 883.79 1125.48 871.45 1128.12 510.19 1123.78 508.43 1119.44 508 965.92 494.67"/>
    </g>
    <image id="M4_Imageremove" data-name="M4 Imageremove" width="170" height="393" transform="translate(959 491)" xlink:href="toy_saron_pelog5.png"/>
  </g>
  <g id="M3_Image" data-name="M3 Image">
    <g id="M3_Imageremove_hc" data-name="M3 Imageremove_hc">
      <polygon points="955.3 496.55 791.85 478.43 783.12 900.62 943.55 889.96 947.52 888.27 950.23 882.32 955.3 496.55"/>
    </g>
    <image id="M3_Imageremove" data-name="M3 Imageremove" width="174" height="422" transform="translate(782 480)" xlink:href="toy_saron_pelog6.png"/>
  </g>
  <g id="M2_Image" data-name="M2 Image">
    <g id="M2_Imageremove_hc" data-name="M2 Imageremove_hc">
      <polygon class="cls-1" points="614 924 775.64 911.81 780.25 909.84 783.12 487.26 778.61 485.09 616.24 472 614 924"/>
    </g>
    <image id="M2_Imageremove" data-name="M2 Imageremove" width="171" height="454" transform="translate(613 471)" xlink:href="toy_saron_pelog7.png"/>
  </g>
  <g id="M1_Image" data-name="M1 Image">
    <g id="M1_Imageremove_hc" data-name="M1 Imageremove_hc">
      <path d="M610.35,918.38a39,39,0,0,0-1.13-5.27c.16-.93.34-1.85.55-2.76a5.32,5.32,0,0,0,.05-2.14,2.1,2.1,0,0,0,.43-1.1c.1-6.3,0-12.62-.39-18.91a2.59,2.59,0,0,0-1-1.46c0-.14.08-.28.11-.43.21-1,.42-2,.62-3a5.35,5.35,0,0,0,.06-2.06,40.53,40.53,0,0,0,0-6.88v-7.52a5.62,5.62,0,0,0,.35-1.66,74.85,74.85,0,0,0-.35-10.92V841.35c-.12-1.06-.24-2.11-.37-3.16-.16-1.32-.36-2.64-.55-4a18.05,18.05,0,0,0,1.2-7.08c0-5.63-.23-11.27-.39-16.89-.33-11.93-.75-23.85-1.07-35.78v-.1c.11-1.77.33-3.54.56-5.3-.13-5.78-.29-11.56-.4-17.34-.17-.44-.36-.89-.57-1.33-.06-10.79.09-21.58.56-32.37l.84,0h0l-.79-1.31c.11-2.31.23-4.61.36-6.92-.14-3.7-.24-7.39-.29-11.09-.15-1.23-.31-2.47-.41-3.7.13-.48.25-1,.35-1.47,0-4.84,0-9.68,0-14.54,0-.07.11-.13.3-.19.28-8.09-.54-16.21-.67-24.33-.27-16.13.43-32.27.36-48.41-.07-17.77-.61-35.54-.85-53.31-.17-13.09-.15-26.19-.32-39.29-.14-11.09-.48-22.17-.63-33.26,0-3.22-1.32-4.69-4.65-5.19-5.22-.79-11,.61-15.39-4.11-.79-.86-3.19-.34-4.85-.3-9,.2-18.09,1-27.1.58-26.71-1.24-53.39-3-80.09-4.45-8-.43-15.92-.83-23.88-.85-2.32,0-4.63,1.35-6.95,2.08V623c.3,5.61.87,11.22.87,16.83.08,60,0,119.94.11,179.91.09,37.94.47,75.88.74,113.82,0,6.07,3.41,9.74,9.62,9.34,13.06-.85,26.07-2.3,39.12-3.36,7.94-.65,15.9-1,23.84-1.58,15.91-1.24,31.8-2.62,47.7-3.88,6.78-.53,13.56-1.14,20.35-1.25a12.29,12.29,0,0,0,6-1.21,5,5,0,0,0,1.73.29,53,53,0,0,0,10-1l1.06.22c3.67.62,5.73-.52,5.35-4.72C610.22,923.72,610.69,921,610.35,918.38Zm-2.19-163.33.38,0c-.09,2-.19,4-.29,6C608.21,759.06,608.18,757.05,608.16,755.05Z"/>
    </g>
    <image id="M1_Imageremove" data-name="M1 Imageremove" width="167" height="489" transform="translate(443 454)" xlink:href="toy_saron_pelog8.png"/>
  </g>
</svg>
