<?xml version="1.0" standalone="no"?>
<!DOCTYPE svg PUBLIC "-//W3C//DTD SVG 20010904//EN"
 "http://www.w3.org/TR/2001/REC-SVG-20010904/DTD/svg10.dtd">
<svg version="1.0" xmlns="http://www.w3.org/2000/svg"
 width="700.000000pt" height="700.000000pt" viewBox="0 0 700.000000 700.000000"
 preserveAspectRatio="xMidYMid meet">
<metadata>
Created by potrace 1.14, written by Peter Selinger 2001-2017
</metadata>
<g transform="translate(0.000000,700.000000) scale(0.100000,-0.100000)"
fill="#000000" stroke="none">
<path d="M3220 5605 c0 -1086 -2 -1255 -14 -1255 -8 0 -17 4 -21 10 -7 12
-136 72 -237 111 -149 58 -357 110 -496 125 -31 3 -64 7 -75 9 -10 3 -77 7
-148 11 l-129 6 0 -281 0 -281 38 0 c166 -2 380 -36 522 -81 303 -98 513 -260
553 -428 l12 -51 277 0 c270 0 278 1 278 20 0 10 10 45 22 77 42 112 213 253
404 333 76 31 254 85 319 95 22 4 47 8 55 10 8 1 49 6 90 10 41 4 82 9 90 11
8 1 43 3 78 3 l62 1 0 281 0 282 -122 -7 c-129 -7 -178 -12 -237 -21 -136 -21
-165 -26 -171 -30 -4 -2 -20 -7 -36 -9 -120 -22 -336 -100 -470 -170 l-84 -43
0 1258 0 1259 -280 0 -280 0 0 -1255z"/>
<path d="M1540 3500 l0 -1960 1960 0 1960 0 0 1960 0 1960 -700 0 -700 0 0
-140 0 -140 560 0 560 0 0 -1680 0 -1680 -1680 0 -1680 0 0 1680 0 1680 560 0
560 0 0 140 0 140 -700 0 -700 0 0 -1960z"/>
</g>
</svg>
