<?xml version="1.0" encoding="UTF-8"?>
<svg width="1200pt" height="1200pt" version="1.1" viewBox="0 0 1200 1200" xmlns="http://www.w3.org/2000/svg">
 <path class='iconpath' d="m257.47 486.08c-4.9336 14.328-20.555 21.926-34.883 16.992-14.328-4.9336-21.961-20.555-16.992-34.883 20.23-58.465 53.352-110.74 95.941-153.32 42.59-42.59 94.859-75.707 153.32-95.941 14.328-4.9336 29.918 2.6992 34.883 16.992 4.9336 14.328-2.6641 29.953-16.992 34.883-50.148 17.352-95.223 46.043-132.23 83.016-37.008 37.008-65.664 82.082-83.016 132.23zm790.79-63.938c-6.2266 13.859-22.535 20.016-36.395 13.789-13.859-6.2266-20.016-22.535-13.789-36.395l37.727-83.559c5.9766-13.25 21.133-19.477 34.559-14.543l99.504 36.828c14.258 5.2188 21.602 21.059 16.344 35.316-5.2188 14.258-21.023 21.602-35.316 16.344l-34.668-12.816c10.477 24.875 19.262 50.723 26.207 77.328 12.203 46.691 18.719 95.473 18.719 145.55 0 158.65-64.332 302.3-168.3 406.27s-247.61 168.3-406.27 168.3c-158.65 0-302.3-64.332-406.27-168.3s-168.27-247.61-168.27-406.27c0-158.65 64.297-302.3 168.27-406.27s247.61-168.3 406.27-168.3c15.227 0 27.578 12.348 27.578 27.578 0 15.227-12.348 27.539-27.578 27.539-143.43 0-273.32 58.141-367.31 152.14-93.996 93.996-152.14 223.89-152.14 367.31 0 143.46 58.141 273.32 152.14 367.31 93.996 93.996 223.89 152.14 367.31 152.14 143.46 0 273.32-58.141 367.31-152.14 93.996-93.996 152.14-223.85 152.14-367.31 0-45.758-5.832-89.93-16.777-131.76-6.9492-26.605-15.984-52.418-26.965-77.258l-14.074 31.176zm-235.73 442.73-225.9-225.9-225.9 225.9c60.805 51.914 139.68 83.234 225.9 83.234s165.1-31.355 225.9-83.27zm-198.32-276.27 237.28 237.31c51.914-60.805 83.27-139.68 83.27-225.9 0-96.121-38.953-183.17-101.95-246.13-56.918-56.918-133.45-94.215-218.59-100.87zm-94.105 38.953h-280.52c5.9023 75.422 35.855 144.07 82.188 198.32l198.32-198.32zm-309.14-55.117h348.12v-348.12c0-15.227 12.348-27.578 27.539-27.578 111.35 0 212.15 45.145 285.12 118.12s118.12 173.77 118.12 285.12c0 111.35-45.145 212.15-118.12 285.12-72.973 72.973-173.77 118.12-285.12 118.12s-212.15-45.145-285.12-118.12c-72.973-72.973-118.08-173.77-118.08-285.12 0-15.227 12.348-27.539 27.539-27.539z" fill="#fff"/>
</svg>
