<?xml version="1.0" encoding="UTF-8"?>
<svg width="1200pt" height="1200pt" version="1.1" viewBox="0 0 1200 1200" xmlns="http://www.w3.org/2000/svg">
 <g transform="matrix(7.5571 0 0 7.5571 222.14 -6975)" fill="none" stroke-linecap="round" stroke-linejoin="round" stroke-width="2">
  <path  d="m34.956 963.36c0.1101 0 0.23932 0.058409 0.32358 0.1225l7.8067 5.9009c0.16851 0.12716 0.16851 0.33133 0 0.45849l-11.164 8.4383h59.784c0.70918 0 1.2943 0.44246 1.2943 0.97848v9.8143c0 0.53602-0.58513 0.94799-1.2943 0.94799h-60.755l12.135 9.1723c0.16851 0.12716 0.16851 0.33133 0 0.45849l-7.8067 5.9009c-0.16851 0.12716-0.47864 0.12716-0.64715 0l-19.537-14.798c-0.051689-0.016024-0.11992-0.05996-0.16179-0.09149l-7.8067-5.9009c-0.16851-0.12716-0.16851-0.36183 0-0.48898l7.8067-5.9009c0.041869-0.032047 0.1101-0.075983 0.16179-0.09149l19.537-14.798c0.084254-0.063578 0.21348-0.1225 0.32358-0.1225z"/>
  <path  d="m65.045 999.07c-0.1101 0-0.23932 0.058409-0.32358 0.1225l-7.8067 5.9009c-0.16851 0.12716-0.16851 0.33133 0 0.45849l11.164 8.4383h-59.784c-0.70918 0-1.2943 0.44246-1.2943 0.97848v9.8143c0 0.53602 0.58512 0.94798 1.2943 0.94798h60.755l-12.135 9.1723c-0.16851 0.12716-0.16851 0.33133 0 0.45849l7.8067 5.9009c0.16851 0.12716 0.47864 0.12716 0.64715 0l19.537-14.798c0.051689-0.016024 0.11992-0.05996 0.16179-0.092008l7.8067-5.9009c0.16851-0.12716 0.16851-0.36183 0-0.48898l-7.8067-5.9009c-0.041869-0.032048-0.1101-0.075984-0.16179-0.092007l-19.537-14.797c-0.084254-0.063578-0.21348-0.1225-0.32358-0.1225z"/>
 </g>
</svg>
