<?xml version="1.0" encoding="UTF-8"?>
<svg width="1200pt" height="1200pt" version="1.1" viewBox="0 0 1200 1200" xmlns="http://www.w3.org/2000/svg">
 <path d="m630 209.79v159.26c0 10.715-5.7188 20.621-15 25.98-9.2812 5.3555-20.719 5.3555-30 0-9.2812-5.3594-15-15.266-15-25.98v-159.26c0-10.715 5.7188-20.621 15-25.98s20.719-5.3594 30 0 15 15.266 15 25.98zm133.3 256.91c7.957 0.007812 15.594-3.1523 21.211-8.7891l112.62-112.62c7.4492-7.6016 10.312-18.582 7.5234-28.855-2.7891-10.273-10.812-18.297-21.086-21.086-10.273-2.793-21.254 0.070313-28.855 7.5234l-112.62 112.62c-5.625 5.625-8.7852 13.254-8.7852 21.211 0 7.9531 3.1602 15.586 8.7852 21.211s13.254 8.7852 21.211 8.7891zm226.91 103.3h-159.26c-10.715 0-20.621 5.7188-25.98 15-5.3555 9.2812-5.3555 20.719 0 30 5.3594 9.2812 15.266 15 25.98 15h159.26c10.715 0 20.621-5.7188 25.98-15s5.3594-20.719 0-30-15.266-15-25.98-15zm-205.7 172.09c-5.5898-5.7891-13.27-9.0859-21.316-9.1562-8.0469-0.070313-15.785 3.0938-21.477 8.7852-5.6875 5.6875-8.8555 13.426-8.7852 21.473 0.070312 8.0469 3.3711 15.727 9.1602 21.316l112.62 112.62h-0.003906c7.6055 7.4531 18.586 10.316 28.859 7.5273 10.27-2.793 18.297-10.816 21.086-21.09s-0.074219-21.254-7.5234-28.855zm-184.51 58.855c-7.957-0.003906-15.59 3.1562-21.219 8.7852-5.625 5.625-8.7852 13.258-8.7812 21.215v159.26c0 10.715 5.7188 20.621 15 25.98s20.719 5.3594 30 0 15-15.266 15-25.98v-159.26c0.003906-7.957-3.1562-15.59-8.7812-21.215-5.6289-5.6289-13.262-8.7891-21.219-8.7852zm-184.51-58.859-112.62 112.62c-5.7188 5.6055-8.9609 13.266-9 21.273-0.042969 8.0078 3.1211 15.699 8.7852 21.363 5.6602 5.6602 13.355 8.8242 21.363 8.7852 8.0078-0.042968 15.668-3.2812 21.27-9l112.62-112.62c5.7891-5.5898 9.0898-13.273 9.1602-21.32 0.066407-8.0469-3.0977-15.781-8.7891-21.473-5.6875-5.6914-13.426-8.8555-21.473-8.7852-8.0469 0.070312-15.727 3.3672-21.316 9.1562zm-16.434-142.09c0.003906-7.957-3.1562-15.59-8.7852-21.219-5.625-5.625-13.258-8.7852-21.215-8.7812h-159.26c-10.715 0-20.621 5.7188-25.98 15s-5.3594 20.719 0 30 15.266 15 25.98 15h159.26c7.957 0.003906 15.59-3.1562 21.215-8.7812 5.6289-5.6289 8.7891-13.262 8.7852-21.219zm-53.762-297.13c-7.6016-7.4492-18.586-10.312-28.855-7.5234-10.273 2.7891-18.301 10.812-21.09 21.086-2.7891 10.273 0.074219 21.254 7.5234 28.855l112.62 112.62c5.5898 5.7891 13.273 9.0898 21.32 9.1602 8.043 0.066407 15.781-3.0977 21.473-8.7891 5.6914-5.6875 8.8555-13.426 8.7852-21.473-0.070312-8.0469-3.3711-15.727-9.1562-21.316z" fill="#fff"/>
</svg>
